<svg width="130" height="130" viewBox="0 0 130 130" fill="none" xmlns="http://www.w3.org/2000/svg">
<path fill-rule="evenodd" clip-rule="evenodd" d="M0 65C0 29.1104 29.1104 0 65 0C100.89 0 130 29.1104 130 65C130 100.89 100.89 130 65 130C29.1104 130 0 100.89 0 65Z" fill="#204275"/>
<mask id="mask0_54_72" style="mask-type:alpha" maskUnits="userSpaceOnUse" x="27" y="35" width="69" height="67">
<mask id="mask1_54_72" style="mask-type:alpha" maskUnits="userSpaceOnUse" x="0" y="0" width="130" height="130">
<path d="M0 130H130V0H0V130Z" fill="white"/>
</mask>
<g mask="url(#mask1_54_72)">
<path d="M27.6482 35.225H95.9713V101.288H27.6482V35.225Z" fill="white"/>
</g>
</mask>
<g mask="url(#mask0_54_72)">
<mask id="mask2_54_72" style="mask-type:alpha" maskUnits="userSpaceOnUse" x="27" y="35" width="69" height="67">
<path d="M27.6482 101.288H95.9713V35.225H27.6482V101.288Z" fill="white"/>
</mask>
<g mask="url(#mask2_54_72)">
<path d="M92.5155 44.3965H62.4746V45.194C62.3417 48.9159 61.677 52.1061 60.7466 55.0304H67.3928C67.9245 55.0304 68.3232 55.4292 68.3232 55.9609V61.6767C68.3232 62.2084 67.9245 62.6071 67.3928 62.6071H57.6893C57.4234 62.6071 57.2905 62.4742 57.1576 62.3413C55.1637 65.2656 52.904 67.5253 50.9102 69.1204V100.092C50.9102 100.624 51.3089 101.022 51.8406 101.022H90.5216C91.0533 101.022 91.4521 100.624 91.4521 100.092V50.1122H92.3825C93.9776 50.1122 95.3069 48.783 95.3069 47.1879C95.4398 45.5928 94.2435 44.3965 92.5155 44.3965ZM68.3232 92.5151C68.3232 93.0468 67.9245 93.4456 67.3928 93.4456H57.6893C57.1576 93.4456 56.7588 93.0468 56.7588 92.5151V86.7994C56.7588 86.2677 57.1576 85.8689 57.6893 85.8689H67.3928C67.9245 85.8689 68.3232 86.2677 68.3232 86.7994V92.5151ZM68.3232 77.0959C68.3232 77.6276 67.9245 78.0264 67.3928 78.0264H57.6893C57.1576 78.0264 56.7588 77.6276 56.7588 77.0959V71.3801C56.7588 70.8484 57.1576 70.4497 57.6893 70.4497H67.3928C67.9245 70.4497 68.3232 70.8484 68.3232 71.3801V77.0959ZM85.7363 92.5151C85.7363 93.0468 85.3376 93.4456 84.8059 93.4456H75.1024C74.5707 93.4456 74.1719 93.0468 74.1719 92.5151V86.7994C74.1719 86.2677 74.5707 85.8689 75.1024 85.8689H84.8059C85.3376 85.8689 85.7363 86.2677 85.7363 86.7994V92.5151ZM85.7363 77.0959C85.7363 77.6276 85.3376 78.0264 84.8059 78.0264H75.1024C74.5707 78.0264 74.1719 77.6276 74.1719 77.0959V71.3801C74.1719 70.8484 74.5707 70.4497 75.1024 70.4497H84.8059C85.3376 70.4497 85.7363 70.8484 85.7363 71.3801V77.0959ZM85.7363 61.6767C85.7363 62.2084 85.3376 62.6071 84.8059 62.6071H75.1024C74.5707 62.6071 74.1719 62.2084 74.1719 61.6767V55.9609C74.1719 55.4292 74.5707 55.0304 75.1024 55.0304H84.8059C85.3376 55.0304 85.7363 55.4292 85.7363 55.9609V61.6767Z" fill="#F2F7FB"/>
</g>
<mask id="mask3_54_72" style="mask-type:alpha" maskUnits="userSpaceOnUse" x="27" y="35" width="69" height="67">
<path d="M27.6482 101.288H95.9713V35.225H27.6482V101.288Z" fill="white"/>
</mask>
<g mask="url(#mask3_54_72)">
<path d="M56.36 43.4656C51.4418 42.9339 46.7895 39.212 44.7956 37.484C44.2639 36.9523 43.4664 36.9523 42.9347 37.484C40.9408 39.212 36.2885 42.801 31.3703 43.4656C30.5727 43.5985 30.041 44.2631 30.041 44.9277C30.7056 59.6823 40.4091 66.1956 43.2005 67.7907C43.5993 68.0566 44.131 68.0566 44.6627 67.7907C47.4541 66.1956 57.1576 59.8153 57.8222 44.9277C57.8222 44.1302 57.1576 43.5985 56.36 43.4656ZM43.8651 56.3592C41.7384 56.3592 40.0103 54.6312 40.0103 52.5044C40.0103 50.3776 41.7384 48.6496 43.8651 48.6496C45.9919 48.6496 47.72 50.3776 47.72 52.5044C47.72 54.6312 45.9919 56.3592 43.8651 56.3592Z" fill="#F2F7FB"/>
</g>
</g>
</svg>
