<svg width="21" height="16" viewBox="0 0 21 16" fill="none" xmlns="http://www.w3.org/2000/svg">
<path fill-rule="evenodd" clip-rule="evenodd" d="M18.7219 2.35392C19.1177 2.79722 19.0874 3.48489 18.6541 3.88986L8.18653 13.6745C7.78071 14.0538 7.15911 14.0538 6.75329 13.6745L2.34589 9.55464C1.91265 9.14966 1.88228 8.462 2.27806 8.0187C2.67384 7.5754 3.34589 7.54432 3.77913 7.9493L7.46991 11.3993L17.2209 2.28452C17.6541 1.87954 18.3262 1.91062 18.7219 2.35392Z" fill="#183981"/>
<path fill-rule="evenodd" clip-rule="evenodd" d="M18.7219 2.35392C19.1177 2.79722 19.0874 3.48489 18.6541 3.88986L8.18653 13.6745C7.78071 14.0538 7.15911 14.0538 6.75329 13.6745L2.34589 9.55464C1.91265 9.14966 1.88228 8.462 2.27806 8.0187C2.67384 7.5754 3.34589 7.54432 3.77913 7.9493L7.46991 11.3993L17.2209 2.28452C17.6541 1.87954 18.3262 1.91062 18.7219 2.35392Z" fill="#183981"/>
<path fill-rule="evenodd" clip-rule="evenodd" d="M18.7219 2.35392C19.1177 2.79722 19.0874 3.48489 18.6541 3.88986L8.18653 13.6745C7.78071 14.0538 7.15911 14.0538 6.75329 13.6745L2.34589 9.55464C1.91265 9.14966 1.88228 8.462 2.27806 8.0187C2.67384 7.5754 3.34589 7.54432 3.77913 7.9493L7.46991 11.3993L17.2209 2.28452C17.6541 1.87954 18.3262 1.91062 18.7219 2.35392Z" fill="#183981"/>
<path fill-rule="evenodd" clip-rule="evenodd" d="M18.7219 2.35392C19.1177 2.79722 19.0874 3.48489 18.6541 3.88986L8.18653 13.6745C7.78071 14.0538 7.15911 14.0538 6.75329 13.6745L2.34589 9.55464C1.91265 9.14966 1.88228 8.462 2.27806 8.0187C2.67384 7.5754 3.34589 7.54432 3.77913 7.9493L7.46991 11.3993L17.2209 2.28452C17.6541 1.87954 18.3262 1.91062 18.7219 2.35392Z" stroke="#183981" stroke-width="3" stroke-linecap="round" stroke-linejoin="round"/>
</svg>
